<?xml version="1.0" encoding="UTF-8"?>
<svg xmlns="http://www.w3.org/2000/svg" xmlns:xlink="http://www.w3.org/1999/xlink" width="48px" height="35px" viewBox="0 0 48 35" version="1.1">
<defs>
<linearGradient id="linear0" gradientUnits="userSpaceOnUse" x1="1959.712" y1="737.107" x2="26066.213" y2="737.107" gradientTransform="matrix(0.00106362,0,0,-0.0010718,9.067972,8.264821)">
<stop offset="0" style="stop-color:rgb(97.254902%,96.470588%,93.72549%);stop-opacity:1;"/>
<stop offset="1" style="stop-color:rgb(90.588235%,89.411765%,83.921569%);stop-opacity:1;"/>
</linearGradient>
<linearGradient id="linear1" gradientUnits="userSpaceOnUse" x1="1959.712" y1="737.107" x2="26066.213" y2="737.107" gradientTransform="matrix(0.00106362,0,0,-0.0010718,9.067972,8.264821)">
<stop offset="0" style="stop-color:rgb(97.254902%,96.470588%,93.72549%);stop-opacity:1;"/>
<stop offset="1" style="stop-color:rgb(90.588235%,89.411765%,83.921569%);stop-opacity:1;"/>
</linearGradient>
<linearGradient id="linear2" gradientUnits="userSpaceOnUse" x1="1959.712" y1="737.107" x2="26066.213" y2="737.107" gradientTransform="matrix(0.00106362,0,0,-0.0010718,9.067972,8.264821)">
<stop offset="0" style="stop-color:rgb(97.254902%,96.470588%,93.72549%);stop-opacity:1;"/>
<stop offset="1" style="stop-color:rgb(90.588235%,89.411765%,83.921569%);stop-opacity:1;"/>
</linearGradient>
<linearGradient id="linear3" gradientUnits="userSpaceOnUse" x1="1959.712" y1="737.107" x2="26066.213" y2="737.107" gradientTransform="matrix(0.00106362,0,0,-0.0010718,9.067972,8.264821)">
<stop offset="0" style="stop-color:rgb(97.254902%,96.470588%,93.72549%);stop-opacity:1;"/>
<stop offset="1" style="stop-color:rgb(90.588235%,89.411765%,83.921569%);stop-opacity:1;"/>
</linearGradient>
<linearGradient id="linear4" gradientUnits="userSpaceOnUse" x1="1959.712" y1="737.107" x2="26066.213" y2="737.107" gradientTransform="matrix(0.00106362,0,0,-0.0010718,9.067972,8.264821)">
<stop offset="0" style="stop-color:rgb(97.254902%,96.470588%,93.72549%);stop-opacity:1;"/>
<stop offset="1" style="stop-color:rgb(90.588235%,89.411765%,83.921569%);stop-opacity:1;"/>
</linearGradient>
<linearGradient id="linear5" gradientUnits="userSpaceOnUse" x1="1959.712" y1="737.107" x2="26066.213" y2="737.107" gradientTransform="matrix(0.00106362,0,0,-0.0010718,9.067972,8.264821)">
<stop offset="0" style="stop-color:rgb(97.254902%,96.470588%,93.72549%);stop-opacity:1;"/>
<stop offset="1" style="stop-color:rgb(90.588235%,89.411765%,83.921569%);stop-opacity:1;"/>
</linearGradient>
<linearGradient id="linear6" gradientUnits="userSpaceOnUse" x1="1959.712" y1="737.107" x2="26066.213" y2="737.107" gradientTransform="matrix(0.00106362,0,0,-0.0010718,9.067972,8.264821)">
<stop offset="0" style="stop-color:rgb(97.254902%,96.470588%,93.72549%);stop-opacity:1;"/>
<stop offset="1" style="stop-color:rgb(90.588235%,89.411765%,83.921569%);stop-opacity:1;"/>
</linearGradient>
<linearGradient id="linear7" gradientUnits="userSpaceOnUse" x1="1959.712" y1="737.107" x2="26066.213" y2="737.107" gradientTransform="matrix(0.00106362,0,0,-0.0010718,9.067972,8.264821)">
<stop offset="0" style="stop-color:rgb(97.254902%,96.470588%,93.72549%);stop-opacity:1;"/>
<stop offset="1" style="stop-color:rgb(90.588235%,89.411765%,83.921569%);stop-opacity:1;"/>
</linearGradient>
</defs>
<g id="surface1">
<path style=" stroke:none;fill-rule:nonzero;fill:rgb(90.588235%,35.294118%,30.196078%);fill-opacity:1;" d="M 44.0625 0.00390625 C 46.222656 0.00390625 47.992188 1.785156 47.992188 3.964844 L 47.992188 5.113281 L 42.53125 9.046875 L 23.929688 21.957031 L 5.332031 8.914062 L 5.332031 34.996094 L 3.933594 34.996094 C 1.769531 34.996094 0 33.214844 0 31.035156 L 0 3.964844 C 0 1.785156 1.769531 0.00390625 3.933594 0.00390625 L 23.929688 14.945312 L 44.058594 0.00390625 Z M 44.0625 0.00390625 "/>
<path style=" stroke:none;fill-rule:nonzero;fill:url(#linear0);" d="M 3.933594 0.00390625 L 23.929688 14.945312 L 44.0625 0.00390625 Z M 3.933594 0.00390625 "/>
<path style=" stroke:none;fill-rule:nonzero;fill:rgb(90.588235%,89.411765%,84.313725%);fill-opacity:1;" d="M 5.332031 8.914062 L 5.332031 34.996094 L 42.53125 34.996094 L 42.53125 9.046875 L 23.929688 21.957031 Z M 5.332031 8.914062 "/>
<path style=" stroke:none;fill-rule:nonzero;fill:rgb(72.156863%,71.764706%,68.235294%);fill-opacity:1;" d="M 5.332031 34.996094 L 23.929688 21.957031 L 23.847656 21.898438 L 5.332031 34.710938 Z M 5.332031 34.996094 "/>
<path style=" stroke:none;fill-rule:nonzero;fill:rgb(71.764706%,71.372549%,67.843137%);fill-opacity:1;" d="M 42.53125 9.046875 L 42.542969 34.996094 L 23.929688 21.957031 Z M 42.53125 9.046875 "/>
<path style=" stroke:none;fill-rule:nonzero;fill:rgb(69.803922%,22.352941%,18.431373%);fill-opacity:1;" d="M 47.992188 5.113281 L 48 31.039062 C 47.90625 33.917969 46.667969 34.949219 42.542969 34.996094 L 42.53125 9.046875 L 47.996094 5.113281 Z M 47.992188 5.113281 "/>
<path style=" stroke:none;fill-rule:nonzero;fill:url(#linear1);" d="M 3.933594 0.00390625 L 23.929688 14.945312 L 44.0625 0.00390625 Z M 3.933594 0.00390625 "/>
<path style=" stroke:none;fill-rule:nonzero;fill:url(#linear2);" d="M 3.933594 0.00390625 L 23.929688 14.945312 L 44.0625 0.00390625 Z M 3.933594 0.00390625 "/>
<path style=" stroke:none;fill-rule:nonzero;fill:url(#linear3);" d="M 3.933594 0.00390625 L 23.929688 14.945312 L 44.0625 0.00390625 Z M 3.933594 0.00390625 "/>
<path style=" stroke:none;fill-rule:nonzero;fill:url(#linear4);" d="M 3.933594 0.00390625 L 23.929688 14.945312 L 44.0625 0.00390625 Z M 3.933594 0.00390625 "/>
<path style=" stroke:none;fill-rule:nonzero;fill:url(#linear5);" d="M 3.933594 0.00390625 L 23.929688 14.945312 L 44.0625 0.00390625 Z M 3.933594 0.00390625 "/>
<path style=" stroke:none;fill-rule:nonzero;fill:url(#linear6);" d="M 3.933594 0.00390625 L 23.929688 14.945312 L 44.0625 0.00390625 Z M 3.933594 0.00390625 "/>
<path style=" stroke:none;fill-rule:nonzero;fill:url(#linear7);" d="M 3.933594 0.00390625 L 23.929688 14.945312 L 44.0625 0.00390625 Z M 3.933594 0.00390625 "/>
<path style=" stroke:none;fill-rule:nonzero;fill:rgb(96.862745%,96.078431%,92.941176%);fill-opacity:1;" d="M 3.933594 0.00390625 L 23.929688 14.945312 L 44.0625 0.00390625 Z M 3.933594 0.00390625 "/>
</g>
</svg>
