<?xml version="1.0" encoding="UTF-8"?>
<svg xmlns="http://www.w3.org/2000/svg" xmlns:xlink="http://www.w3.org/1999/xlink" width="49px" height="48px" viewBox="0 0 49 48" version="1.1">
<g id="surface1">
<path style=" stroke:none;fill-rule:nonzero;fill:rgb(8.627451%,8.627451%,7.843137%);fill-opacity:1;" d="M 24.40625 0 C 10.929688 0 0 11.003906 0 24.574219 C 0 35.433594 6.992188 44.644531 16.691406 47.894531 C 17.910156 48.121094 18.355469 47.363281 18.355469 46.714844 C 18.355469 46.128906 18.335938 44.191406 18.324219 42.136719 C 11.535156 43.625 10.101562 39.238281 10.101562 39.238281 C 8.992188 36.398438 7.390625 35.640625 7.390625 35.640625 C 5.179688 34.117188 7.558594 34.148438 7.558594 34.148438 C 10.011719 34.320312 11.300781 36.679688 11.300781 36.679688 C 13.476562 40.4375 17.007812 39.351562 18.402344 38.722656 C 18.621094 37.136719 19.253906 36.050781 19.953125 35.4375 C 14.53125 34.816406 8.832031 32.707031 8.832031 23.292969 C 8.832031 20.609375 9.785156 18.417969 11.347656 16.695312 C 11.09375 16.078125 10.257812 13.578125 11.582031 10.191406 C 11.582031 10.191406 13.632812 9.53125 18.296875 12.710938 C 20.242188 12.167969 22.332031 11.894531 24.40625 11.882812 C 26.480469 11.894531 28.570312 12.167969 30.519531 12.710938 C 35.175781 9.53125 37.222656 10.191406 37.222656 10.191406 C 38.550781 13.578125 37.714844 16.078125 37.464844 16.695312 C 39.027344 18.417969 39.976562 20.609375 39.976562 23.292969 C 39.976562 32.730469 34.265625 34.808594 28.832031 35.417969 C 29.707031 36.179688 30.488281 37.675781 30.488281 39.96875 C 30.488281 43.257812 30.457031 45.902344 30.457031 46.714844 C 30.457031 47.367188 30.898438 48.132812 32.132812 47.890625 C 41.828125 44.640625 48.808594 35.429688 48.808594 24.574219 C 48.808594 11.003906 37.882812 0 24.40625 0 "/>
<path style=" stroke:none;fill-rule:nonzero;fill:rgb(8.627451%,8.627451%,7.843137%);fill-opacity:1;" d="M 9.140625 35.007812 C 9.085938 35.128906 8.894531 35.167969 8.722656 35.082031 C 8.546875 35.003906 8.445312 34.835938 8.503906 34.714844 C 8.554688 34.589844 8.746094 34.554688 8.921875 34.636719 C 9.101562 34.71875 9.203125 34.886719 9.140625 35.007812 M 10.339844 36.085938 C 10.226562 36.195312 9.996094 36.144531 9.84375 35.972656 C 9.683594 35.800781 9.652344 35.574219 9.769531 35.464844 C 9.890625 35.355469 10.113281 35.40625 10.273438 35.578125 C 10.433594 35.75 10.460938 35.976562 10.339844 36.085938 M 11.164062 37.46875 C 11.015625 37.570312 10.769531 37.472656 10.621094 37.253906 C 10.46875 37.035156 10.46875 36.773438 10.621094 36.667969 C 10.773438 36.566406 11.015625 36.660156 11.167969 36.875 C 11.316406 37.097656 11.316406 37.359375 11.164062 37.46875 M 12.558594 39.066406 C 12.421875 39.214844 12.140625 39.175781 11.929688 38.972656 C 11.71875 38.773438 11.65625 38.492188 11.792969 38.34375 C 11.925781 38.195312 12.214844 38.238281 12.421875 38.4375 C 12.636719 38.636719 12.699219 38.917969 12.558594 39.066406 M 14.355469 39.605469 C 14.296875 39.796875 14.023438 39.886719 13.746094 39.804688 C 13.472656 39.71875 13.292969 39.492188 13.347656 39.300781 C 13.402344 39.105469 13.679688 39.015625 13.957031 39.101562 C 14.234375 39.1875 14.414062 39.410156 14.359375 39.605469 M 16.40625 39.835938 C 16.414062 40.035156 16.179688 40.203125 15.886719 40.207031 C 15.597656 40.214844 15.359375 40.050781 15.359375 39.851562 C 15.359375 39.648438 15.585938 39.480469 15.878906 39.476562 C 16.167969 39.46875 16.40625 39.632812 16.40625 39.835938 M 18.417969 39.757812 C 18.453125 39.953125 18.25 40.15625 17.964844 40.210938 C 17.679688 40.261719 17.417969 40.140625 17.382812 39.945312 C 17.347656 39.742188 17.550781 39.539062 17.835938 39.488281 C 18.125 39.4375 18.382812 39.554688 18.417969 39.757812 "/>
</g>
</svg>
